<?xml version="1.0" ?><!DOCTYPE svg  PUBLIC '-//W3C//DTD SVG 1.1//EN'  'http://www.w3.org/Graphics/SVG/1.1/DTD/svg11.dtd'><svg enable-background="new 0 0 64 64" id="Layer_1" version="1.1" viewBox="0 0 64 64" xml:space="preserve" xmlns="http://www.w3.org/2000/svg" xmlns:xlink="http://www.w3.org/1999/xlink"><polygon fill="#F8B319" points="33.9,29 29.9,22 33.9,15 41.8,15 45.8,22 41.8,29 "/><polygon fill="#FFD766" points="36.2,25 34.5,22 36.2,19 39.5,19 41.2,22 39.5,25 "/><polygon fill="#F8B319" points="45.8,22 41.8,15 45.8,8 53.8,8 57.8,15 53.8,22 "/><polygon fill="#FFD766" points="48.2,18 46.4,15 48.2,12 51.5,12 53.2,15 51.5,18 "/><polygon fill="#F8B319" points="45.8,36 41.8,29 45.8,22 53.8,22 57.8,29 53.8,36 "/><polygon fill="#FFD766" points="48.2,32 46.4,29 48.2,26 51.5,26 53.2,29 51.5,32 "/><polygon fill="#F8B319" points="33.9,43 29.9,36 33.9,29 41.8,29 45.8,36 41.8,43 "/><polygon fill="#FFD766" points="36.2,39 34.5,36 36.2,33 39.5,33 41.2,36 39.5,39 "/><polygon fill="#F8B319" points="22.1,22 18.1,15 22,8 30,8 33.9,15 29.9,22 "/><polygon fill="#FFD766" points="24.4,18 22.7,15 24.3,12 27.7,12 29.3,15 27.6,18 "/><polygon fill="#F8B319" points="22,36 18.2,29 22.1,22 29.9,22 33.9,29 29.9,36 "/><polygon fill="#FFD766" points="24.4,32 22.7,29 24.4,26 27.6,26 29.3,29 27.6,32 "/><polygon fill="#F8B319" points="22,50 18.1,43 22,36 29.9,36 33.9,43 30,50 "/><polygon fill="#FFD766" points="24.3,46 22.7,43 24.3,40 27.6,40 29.3,43 27.7,46 "/><polygon fill="#F8B319" points="10.2,43 6.2,36 10.2,29 18.2,29 22,36 18.1,43 "/><polygon fill="#FFD766" points="12.5,39 10.8,36 12.5,33 15.8,33 17.4,36 15.7,39 "/><polygon fill="#F8B319" points="10.2,29 6.2,22 10.2,15 18.1,15 22.1,22 18.2,29 "/><polygon fill="#FFD766" points="12.5,25 10.8,22 12.5,19 15.8,19 17.5,22 15.8,25 "/><polygon fill="none" points="  33.9,29 29.9,22 33.9,15 41.8,15 45.8,22 41.8,29 " stroke="#2C3E50" stroke-linecap="round" stroke-linejoin="round" stroke-miterlimit="10" stroke-width="2"/><polygon fill="none" points="  45.8,22 41.8,15 45.8,8 53.8,8 57.8,15 53.8,22 " stroke="#2C3E50" stroke-linecap="round" stroke-linejoin="round" stroke-miterlimit="10" stroke-width="2"/><polygon fill="none" points="  45.8,36 41.8,29 45.8,22 53.8,22 57.8,29 53.8,36 " stroke="#2C3E50" stroke-linecap="round" stroke-linejoin="round" stroke-miterlimit="10" stroke-width="2"/><polygon fill="none" points="  33.9,43 29.9,36 33.9,29 41.8,29 45.8,36 41.8,43 " stroke="#2C3E50" stroke-linecap="round" stroke-linejoin="round" stroke-miterlimit="10" stroke-width="2"/><polygon fill="none" points="  22.1,22 18.1,15 22,8 30,8 33.9,15 29.9,22 " stroke="#2C3E50" stroke-linecap="round" stroke-linejoin="round" stroke-miterlimit="10" stroke-width="2"/><polygon fill="none" points="  22,36 18.2,29 22.1,22 29.9,22 33.9,29 29.9,36 " stroke="#2C3E50" stroke-linecap="round" stroke-linejoin="round" stroke-miterlimit="10" stroke-width="2"/><polygon fill="none" points="  22,50 18.1,43 22,36 29.9,36 33.9,43 30,50 " stroke="#2C3E50" stroke-linecap="round" stroke-linejoin="round" stroke-miterlimit="10" stroke-width="2"/><polygon fill="none" points="  10.2,43 6.2,36 10.2,29 18.2,29 22,36 18.1,43 " stroke="#2C3E50" stroke-linecap="round" stroke-linejoin="round" stroke-miterlimit="10" stroke-width="2"/><polygon fill="none" points="  10.2,29 6.2,22 10.2,15 18.1,15 22.1,22 18.2,29 " stroke="#2C3E50" stroke-linecap="round" stroke-linejoin="round" stroke-miterlimit="10" stroke-width="2"/><polyline fill="none" points="  10.2,21.3 12.2,18 16,18 " stroke="#2C3E50" stroke-linecap="round" stroke-linejoin="round" stroke-miterlimit="10" stroke-width="2"/><polyline fill="none" points="  10.2,35.3 12.2,32 16,32 " stroke="#2C3E50" stroke-linecap="round" stroke-linejoin="round" stroke-miterlimit="10" stroke-width="2"/><polyline fill="none" points="  22.2,14.3 24.2,11 28,11 " stroke="#2C3E50" stroke-linecap="round" stroke-linejoin="round" stroke-miterlimit="10" stroke-width="2"/><polyline fill="none" points="  46.2,14.3 48.2,11 52,11 " stroke="#2C3E50" stroke-linecap="round" stroke-linejoin="round" stroke-miterlimit="10" stroke-width="2"/><path d="M52.7,52.4c0,2.1-1.7,3.8-3.8,3.8S45,54.5,45,52.4s3.8-7.3,3.8-7.3S52.7,50.3,52.7,52.4z" fill="#F8B319"/><path d="M49.8,53.2c-2.1,0-3.8-1.6-3.8-3.7c-0.6,1.1-1,2.2-1,2.9c0,2.1,1.7,3.8,3.8,3.8c2.1,0,3.8-1.7,3.8-3.8  c0-0.1,0-0.3,0-0.4C51.9,52.8,50.9,53.2,49.8,53.2z" fill="#FFD766"/><path d="  M52.7,52.4c0,2.1-1.7,3.8-3.8,3.8S45,54.5,45,52.4s3.8-7.3,3.8-7.3S52.7,50.3,52.7,52.4z" fill="none" stroke="#2C3E50" stroke-linecap="round" stroke-linejoin="round" stroke-miterlimit="10" stroke-width="2"/></svg>